<svg width="20" height="20" viewBox="0 0 20 20" fill="none" xmlns="http://www.w3.org/2000/svg">
<path d="M4.27391 3.48011H0.58823C0.263319 3.48011 0 3.21661 0 2.89188C0 2.56714 0.263319 2.30365 0.58823 2.30365H4.27391C4.59882 2.30365 4.86214 2.56714 4.86214 2.89188C4.86214 3.21661 4.59882 3.48011 4.27391 3.48011Z" fill="#0061DF"/>
<path d="M6.37994 5.58609C4.8942 5.58609 3.68555 4.37743 3.68555 2.89183C3.68555 1.40592 4.8942 0.197266 6.37994 0.197266C7.86567 0.197266 9.07433 1.40592 9.07433 2.89183C9.07433 4.37748 7.86567 5.58609 6.37994 5.58609ZM6.37994 1.37377C5.54293 1.37377 4.86201 2.05483 4.86201 2.89183C4.86201 3.72884 5.54293 4.40959 6.37994 4.40959C7.21694 4.40959 7.89787 3.72884 7.89787 2.89183C7.89787 2.05483 7.21694 1.37377 6.37994 1.37377Z" fill="#0061DF"/>
<path d="M19.4117 3.48011H10.62C10.2951 3.48011 10.0317 3.21661 10.0317 2.89188C10.0317 2.56714 10.2951 2.30365 10.62 2.30365H19.4116C19.7365 2.30365 19.9998 2.56714 19.9998 2.89188C19.9998 3.21661 19.7366 3.48011 19.4117 3.48011Z" fill="#0061DF"/>
<path d="M14.2779 12.6943C12.7921 12.6943 11.5835 11.4856 11.5835 10C11.5835 8.51441 12.7922 7.30576 14.2779 7.30576C15.7636 7.30576 16.9723 8.51441 16.9723 10C16.9723 11.4856 15.7637 12.6943 14.2779 12.6943ZM14.2779 8.48226C13.4409 8.48226 12.76 9.16301 12.76 10C12.76 10.837 13.4409 11.5178 14.2779 11.5178C15.1149 11.5178 15.7958 10.837 15.7958 10C15.7958 9.16301 15.1149 8.48226 14.2779 8.48226Z" fill="#0061DF"/>
<path d="M10.0382 10.5882H0.58823C0.263319 10.5882 0 10.3247 0 10C0 9.67527 0.263319 9.41177 0.58823 9.41177H10.0382C10.3631 9.41177 10.6264 9.67527 10.6264 10C10.6264 10.3247 10.3631 10.5882 10.0382 10.5882Z" fill="#0061DF"/>
<path d="M19.4117 10.5882H16.3841C16.0592 10.5882 15.7959 10.3247 15.7959 10C15.7959 9.67527 16.0592 9.41177 16.3841 9.41177H19.4117C19.7366 9.41177 19.9999 9.67527 19.9999 10C19.9999 10.3247 19.7366 10.5882 19.4117 10.5882Z" fill="#0061DF"/>
<path d="M5.72222 19.8027C4.23649 19.8027 3.02783 18.594 3.02783 17.1081C3.02783 15.6225 4.23649 14.4139 5.72222 14.4139C7.20796 14.4139 8.41661 15.6225 8.41661 17.1081C8.41661 18.594 7.20796 19.8027 5.72222 19.8027ZM5.72222 15.5904C4.88522 15.5904 4.20429 16.2711 4.20429 17.1081C4.20429 17.9451 4.88522 18.6262 5.72222 18.6262C6.55923 18.6262 7.24015 17.9451 7.24015 17.1081C7.24015 16.2711 6.55923 15.5904 5.72222 15.5904Z" fill="#0061DF"/>
<path d="M19.4117 17.6964H9.96177C9.63685 17.6964 9.37354 17.4329 9.37354 17.1082C9.37354 16.7835 9.63685 16.52 9.96177 16.52H19.4117C19.7366 16.52 19.9999 16.7835 19.9999 17.1082C19.9999 17.4329 19.7366 17.6964 19.4117 17.6964Z" fill="#0061DF"/>
<path d="M3.61581 17.6964H0.58823C0.263319 17.6964 0 17.4329 0 17.1081C0 16.7834 0.263319 16.5199 0.58823 16.5199H3.61581C3.94072 16.5199 4.20404 16.7834 4.20404 17.1081C4.20404 17.4329 3.94072 17.6964 3.61581 17.6964Z" fill="#0061DF"/>
</svg>
